<svg width="102" height="40" viewBox="0 0 102 40" fill="none" xmlns="http://www.w3.org/2000/svg">
<g id="Vector">
<path fill-rule="evenodd" clip-rule="evenodd" d="M5.5882 19.6742C5.63648 19.7092 5.68477 19.741 5.73305 19.7727C5.73305 19.7727 5.76524 19.795 5.77812 19.8045C5.77812 19.8045 5.80709 19.8268 5.82319 19.8363H5.8264C5.8264 19.8363 5.85537 19.8586 5.87147 19.8681H5.87791C5.87791 19.8681 5.90688 19.8903 5.91976 19.8999H5.92619C5.92619 19.8999 5.95516 19.9221 5.96804 19.9317H5.97448C5.97448 19.9317 6.00345 19.9539 6.01955 19.9634H6.02598C6.02598 19.9634 6.05495 19.9857 6.07105 19.9952H6.07749C6.07749 19.9952 6.10646 20.0175 6.12255 20.027H6.12577C6.12577 20.027 6.15796 20.0493 6.17406 20.0588C6.23522 20.0969 6.29316 20.1351 6.35432 20.1732L6.38007 20.1891H6.38651C6.38651 20.1891 6.4187 20.2114 6.4348 20.2209L6.46055 20.2368H6.46699C6.46699 20.2368 6.49918 20.259 6.51527 20.2686L6.54102 20.2845H6.54746C6.54746 20.2845 6.57965 20.3067 6.59575 20.3162C6.59575 20.3162 6.61184 20.329 6.6215 20.3321H6.62794C6.65369 20.3512 6.67944 20.3671 6.70519 20.3798H6.70841L6.73416 20.3957H6.74382V20.4021C6.75992 20.4116 6.77601 20.4211 6.79211 20.4307L6.82108 20.4466H6.8243C6.92087 20.5038 7.02066 20.5578 7.12045 20.6087L7.17839 20.6404H7.18161L7.20736 20.6563H7.2138L7.23955 20.6722H7.24599L7.27174 20.6881H7.2814L7.30393 20.704H7.31359L7.33612 20.7199H7.34578V20.7263L7.36831 20.739H7.37797V20.7453L7.4005 20.7549H7.41016V20.7612C7.50673 20.8089 7.60652 20.8566 7.70309 20.9011H7.7063L7.7385 20.917C7.7739 20.9329 7.80931 20.9487 7.84472 20.9646H7.85438L7.88013 20.9805H7.88657L7.91554 20.9964H7.91876C7.91876 20.9964 7.94129 21.0091 7.95095 21.0123C7.95095 21.0123 7.9767 21.0218 7.98636 21.0282H7.99923V21.0346C7.99923 21.0346 8.01533 21.0409 8.02499 21.0441H8.03464L8.06361 21.06H8.06683C8.08937 21.0727 8.11512 21.0822 8.13765 21.0918H8.14731C8.14731 21.0918 8.16662 21.1045 8.17628 21.1077H8.1795C8.21813 21.1267 8.25354 21.1426 8.29216 21.1553C8.34367 21.1776 8.39839 21.1998 8.4499 21.2221H8.45633C8.48209 21.2348 8.50784 21.2443 8.53359 21.2539H8.53681C8.53681 21.2539 8.56256 21.2666 8.57544 21.2698H8.58831C8.58831 21.2698 8.60763 21.2825 8.6205 21.2857C8.6205 21.2857 8.64947 21.2984 8.66235 21.3015H8.67201C8.67201 21.3015 8.69454 21.3143 8.70742 21.3174H8.72029V21.3238C8.72029 21.3238 8.73961 21.3302 8.74926 21.3333C8.74926 21.3333 8.77823 21.346 8.79111 21.3492H8.79755L8.83618 21.3651H8.84905C8.8748 21.3778 8.90056 21.3874 8.92953 21.3969C8.92953 21.3969 8.9585 21.4096 8.97459 21.4128H8.98103C9.06151 21.4414 9.13876 21.47 9.21924 21.4954H9.2289C9.2289 21.4954 9.25465 21.5081 9.26752 21.5113H9.27718C9.27718 21.5113 9.30615 21.524 9.31903 21.5272H9.32547C9.32547 21.5272 9.35444 21.5399 9.37053 21.5431H9.37697C9.37697 21.5431 9.40916 21.5558 9.42525 21.559H9.44457V21.5654C9.44457 21.5654 9.4671 21.5717 9.47998 21.5749H9.49285C9.49285 21.5749 9.51861 21.5876 9.53148 21.5908H9.54114C9.54114 21.5908 9.57333 21.6035 9.58621 21.6067H9.58942C9.60552 21.613 9.62483 21.6194 9.64093 21.6226H9.6538C9.6538 21.6226 9.68278 21.6353 9.69887 21.6385H9.70531C9.78256 21.6607 9.86304 21.683 9.9403 21.7052H9.95317C9.96927 21.7116 9.98858 21.7179 10.0047 21.7211H10.0208C10.0369 21.7306 10.053 21.7338 10.0691 21.737H10.0852C10.1012 21.7465 10.1173 21.7497 10.1367 21.7529H10.1528C10.1688 21.7624 10.1882 21.7656 10.2043 21.7688H10.2171C10.2364 21.7751 10.2525 21.7815 10.2719 21.7847H10.2815C10.3008 21.791 10.3234 21.7974 10.3427 21.8006H10.3491C10.3716 21.8069 10.3942 21.8133 10.4167 21.8164H10.4296C10.4489 21.8228 10.4714 21.8292 10.4907 21.8323H10.494C10.5455 21.8451 10.597 21.8546 10.6485 21.8641H10.6581C10.6839 21.8705 10.7064 21.8768 10.7322 21.88H10.7418C10.7676 21.8864 10.7933 21.8927 10.8223 21.8959H10.8416C10.8642 21.9054 10.8899 21.9086 10.9124 21.9118H10.9414V21.9182C10.9639 21.9213 10.9865 21.9245 11.009 21.9309H11.038V21.9372C11.0605 21.9404 11.0863 21.9436 11.1088 21.9499H11.1378C11.1635 21.9595 11.1893 21.9627 11.215 21.9658H11.2182C11.2504 21.9722 11.2794 21.9754 11.3116 21.9785C7.93164 20.8311 5.5045 17.6655 5.5045 13.9404C5.5045 9.24593 9.35766 5.4414 14.1153 5.4414C16.3365 5.4414 18.358 6.27096 19.8838 7.63131L24.8346 4.8089C24.8057 4.77712 24.7767 4.74533 24.751 4.71355C24.751 4.71355 24.7413 4.70083 24.7381 4.69766H24.7349C24.6962 4.64998 24.6576 4.60866 24.619 4.56734C24.619 4.56734 24.6093 4.55463 24.6061 4.55145C24.6061 4.55145 24.5997 4.53874 24.5932 4.53556H24.59C24.59 4.53556 24.5836 4.52284 24.5803 4.51967H24.5739V4.51331C24.5288 4.46563 24.487 4.41796 24.4419 4.37346L24.4097 4.34168C24.1683 4.08741 23.9172 3.84267 23.6565 3.60747H23.6533L23.6404 3.59158L23.6243 3.57569C23.5889 3.5439 23.5503 3.50894 23.5149 3.47716H23.5084V3.4708L23.4955 3.46126H23.4923L23.4762 3.44537C23.4376 3.41041 23.4022 3.37863 23.3636 3.34684H23.3603L23.3442 3.33095C23.2799 3.27692 23.2155 3.22288 23.1479 3.16885C23.1221 3.1466 23.0964 3.12435 23.0706 3.10211H23.0642L23.0481 3.08621C23.0288 3.07032 23.0095 3.05443 22.9869 3.03854H22.9805V3.03218L22.9676 3.01947C22.9483 3.00358 22.9258 2.98768 22.9065 2.97179H22.9L22.8839 2.9559C22.8646 2.94001 22.8421 2.92412 22.8228 2.90822H22.8195C22.7938 2.8828 22.7648 2.86373 22.7391 2.84466C22.6972 2.80969 22.6522 2.77791 22.6103 2.74613C22.5878 2.73023 22.5685 2.71434 22.5459 2.69845C22.5459 2.69845 22.517 2.6762 22.5041 2.66667H22.4976L22.4815 2.65077C22.4815 2.65077 22.4526 2.62853 22.4365 2.61899H22.4333C22.4107 2.59992 22.3914 2.58403 22.3689 2.57131C22.3689 2.57131 22.3399 2.54907 22.3238 2.53953H22.3206C22.2981 2.52046 22.2788 2.50457 22.2562 2.49186C22.2562 2.49186 22.224 2.46961 22.2112 2.46007C22.1146 2.39333 22.018 2.32658 21.9214 2.26619H21.915C21.915 2.26619 21.886 2.24394 21.8699 2.23441H21.8635C21.8635 2.23441 21.8345 2.21216 21.8184 2.20262H21.8152C21.8152 2.20262 21.783 2.18037 21.7701 2.17084C21.7541 2.15812 21.738 2.14859 21.7219 2.13905L21.6961 2.12316H21.6897C21.6897 2.12316 21.6607 2.10091 21.6446 2.09138H21.6414C21.6253 2.07866 21.6092 2.06913 21.5931 2.05959C21.5126 2.00874 21.4289 1.96106 21.3485 1.91339C21.3195 1.8975 21.2937 1.8816 21.2648 1.86571L21.2358 1.84982H21.2326L21.21 1.83393H21.2004V1.82757C21.1843 1.81804 21.1682 1.8085 21.1521 1.79897C21.1521 1.79897 21.1328 1.78943 21.1231 1.78308H21.1199C21.1199 1.78308 21.1038 1.77036 21.0942 1.76718H21.0845C21.0588 1.74811 21.033 1.73222 21.004 1.71951C21.004 1.71951 20.9847 1.70679 20.9783 1.70362H20.9718C20.6982 1.55105 20.4182 1.4112 20.1317 1.28089C20.0834 1.25864 20.0351 1.23639 19.99 1.21732H19.9836C19.9836 1.21732 19.9611 1.20461 19.9514 1.20143C19.9257 1.18872 19.9031 1.17918 19.8774 1.16965H19.8677C19.8677 1.16965 19.8484 1.15693 19.8387 1.15375H19.8323L19.8001 1.13786C19.8001 1.13786 19.7744 1.12833 19.7615 1.12197H19.7486L19.7229 1.10608H19.7164C19.7164 1.10608 19.6939 1.09337 19.6842 1.09019C19.6585 1.08065 19.6327 1.06794 19.607 1.0584H19.6038C19.4975 1.01391 19.3881 0.969408 19.2786 0.928089H19.2722C19.2722 0.928089 19.2464 0.915375 19.2336 0.912197H19.2207L19.1885 0.896305C19.1885 0.896305 19.1595 0.883592 19.1467 0.880413H19.137C19.137 0.880413 19.1145 0.8677 19.1016 0.864521H19.0887V0.858164C19.0887 0.858164 19.0662 0.851808 19.0565 0.845451C19.0565 0.845451 19.0276 0.835916 19.0115 0.829559H19.005C19.005 0.829559 18.9793 0.816845 18.9664 0.813667H18.9567C18.9149 0.794597 18.8698 0.778705 18.828 0.765991C18.7636 0.743743 18.6992 0.721494 18.6381 0.702423H18.6316C18.6316 0.702423 18.6026 0.68971 18.5898 0.686532H18.5833C18.5833 0.686532 18.5544 0.673818 18.5383 0.67064H18.5318C18.5318 0.67064 18.4996 0.657926 18.4868 0.654748H18.4835C18.4835 0.654748 18.4514 0.642034 18.4353 0.638856C18.4192 0.632499 18.3998 0.629321 18.3838 0.622964H18.3677C18.3677 0.622964 18.3419 0.61025 18.329 0.607072H18.3194C18.3194 0.607072 18.2904 0.594358 18.2743 0.59118H18.2679C18.2518 0.584823 18.2357 0.578466 18.2196 0.575288C18.181 0.562574 18.1455 0.553039 18.1069 0.543504C18.0683 0.530791 18.0329 0.521255 17.9943 0.51172C17.9363 0.495828 17.8752 0.479936 17.814 0.464044C17.7947 0.457688 17.7754 0.454509 17.7528 0.448153H17.7464C17.7271 0.441796 17.7078 0.435439 17.6884 0.432261H17.6788C17.6595 0.425904 17.6402 0.419547 17.6209 0.416369H17.6112C17.5919 0.410012 17.5726 0.403655 17.5532 0.400477H17.5468C17.5275 0.39412 17.5082 0.387763 17.4889 0.384585H17.4824C17.4599 0.378228 17.4406 0.371871 17.4181 0.368693C17.3215 0.346444 17.2249 0.324195 17.1251 0.301947H17.1219C17.0962 0.29559 17.0704 0.289233 17.0479 0.286055H17.0414C17.0157 0.279698 16.9931 0.273341 16.9674 0.270163H16.9416V0.263806C16.9223 0.260628 16.903 0.257449 16.8837 0.251093H16.8612C16.8386 0.241557 16.8193 0.238379 16.7968 0.235201H16.7775C16.7549 0.228844 16.7292 0.222487 16.7067 0.219309H16.6938C16.6648 0.212952 16.6391 0.206595 16.6133 0.203417C16.5811 0.19706 16.5489 0.193882 16.5167 0.187525H16.5135C16.4813 0.181168 16.4459 0.17799 16.4137 0.171633H16.3976C16.3687 0.165276 16.3365 0.158919 16.3075 0.155741H16.2817C16.2528 0.146206 16.2238 0.143027 16.1948 0.139849H16.1659C16.1369 0.130314 16.1047 0.127135 16.0757 0.123957H16.0532C16.021 0.1176 15.9856 0.111244 15.9502 0.108065H15.9373C15.8955 0.101708 15.8536 0.0953516 15.8118 0.0921732H15.8053C15.757 0.0858165 15.7088 0.0794597 15.6605 0.0762813H15.6412C15.5929 0.0699245 15.5414 0.0635677 15.4931 0.0603893H15.4448C15.3965 0.0508542 15.3482 0.0476758 15.2999 0.0444974H15.2484C15.1873 0.0349623 15.1261 0.0317839 15.065 0.0286055H15.0521C14.9459 0.0222487 14.8428 0.0158919 14.7366 0.0127135H14.5757V0.00635677C14.4469 0.00317839 14.3181 0 14.1894 0C14.022 0 13.8514 0.00317839 13.684 0.00953516H13.6486C13.5456 0.0127135 13.4394 0.0190703 13.3364 0.0254271H13.3074C13.2333 0.0286055 13.1593 0.0349623 13.0885 0.041319H13.0756C12.9597 0.0508542 12.8406 0.0603894 12.7247 0.0731029H12.7086C12.6636 0.0762813 12.6217 0.0826381 12.5767 0.0858164H12.5573C12.5155 0.0921732 12.4704 0.0953516 12.4286 0.101708H12.4189C12.3385 0.111244 12.258 0.120779 12.1807 0.133492H12.1743C12.1389 0.139849 12.1035 0.143027 12.0648 0.149384H12.0552C12.0262 0.152563 11.994 0.158919 11.9651 0.162098H11.9522C11.8846 0.171633 11.817 0.184346 11.7494 0.193882C11.6625 0.209774 11.5723 0.225665 11.4854 0.241557H11.479C11.4532 0.247914 11.4275 0.251093 11.4017 0.257449H11.3953C11.3695 0.263806 11.3438 0.266984 11.318 0.273341H11.3148C11.2891 0.279698 11.2633 0.282876 11.2376 0.289233C11.1152 0.31466 10.9961 0.340087 10.877 0.368693H10.8706C10.8513 0.371871 10.832 0.378228 10.8094 0.384585H10.803C10.7837 0.387763 10.7644 0.39412 10.7418 0.400477H10.7354C10.6098 0.432261 10.4843 0.464045 10.362 0.499007C10.3234 0.508542 10.2847 0.521255 10.2461 0.530791C10.1914 0.546683 10.1367 0.562574 10.0852 0.578466H10.0819C10.0111 0.600715 9.9403 0.619785 9.8727 0.642034C9.8566 0.648391 9.84051 0.651569 9.82441 0.657926C9.80832 0.664283 9.79222 0.667461 9.77935 0.673818H9.77613C9.76003 0.676996 9.74716 0.683353 9.73106 0.686532H9.72462C9.71175 0.68971 9.69565 0.696067 9.68278 0.702423H9.67634C9.66024 0.70878 9.64737 0.711959 9.63127 0.718315H9.62805C9.61196 0.724672 9.59586 0.727851 9.58299 0.734207C9.56689 0.740564 9.5508 0.743743 9.5347 0.750099C9.42847 0.785062 9.32547 0.823202 9.22246 0.861343H9.21602C9.20314 0.8677 9.18705 0.870878 9.17417 0.877235C9.14842 0.88677 9.11945 0.899484 9.0937 0.909019H9.09048C8.98103 0.950338 8.87159 0.994835 8.76536 1.03933C8.72673 1.05522 8.6881 1.07112 8.65269 1.08701H8.64626C8.61085 1.1029 8.57222 1.11879 8.53681 1.13468C8.42736 1.18236 8.31792 1.23004 8.20847 1.28089C8.19881 1.28725 8.18594 1.29043 8.17628 1.29678C8.16662 1.29996 8.15697 1.30632 8.14731 1.3095H8.14087C7.96383 1.39213 7.79 1.47795 7.61939 1.56694H7.61617C7.60652 1.5733 7.59686 1.57648 7.5872 1.58284C7.57754 1.58919 7.56789 1.59237 7.55823 1.59873C7.49707 1.63051 7.43913 1.6623 7.37797 1.69726C7.30071 1.73858 7.22345 1.78308 7.14942 1.82439C7.11079 1.84664 7.07538 1.86571 7.03675 1.88796C7.00778 1.90385 6.98203 1.91975 6.95628 1.93564C6.84039 2.00556 6.72451 2.07549 6.61184 2.14541C6.59575 2.15495 6.57965 2.16448 6.56356 2.17402H6.56034C6.42836 2.25983 6.29638 2.34565 6.16762 2.43464C6.15152 2.44418 6.13543 2.45689 6.11933 2.46643C6.0968 2.48232 6.07427 2.49821 6.05495 2.5141H6.05173C6.03564 2.52364 6.02276 2.53635 6.00667 2.54589C5.94551 2.59039 5.88435 2.6317 5.8264 2.6762C5.80387 2.69209 5.78134 2.70799 5.76202 2.72388C5.73949 2.73977 5.71696 2.75566 5.69764 2.77155C5.67511 2.78745 5.6558 2.80334 5.63326 2.81923C5.60429 2.84148 5.57854 2.86055 5.54957 2.8828C5.44012 2.96861 5.33068 3.05443 5.22123 3.14025C5.18904 3.16567 5.15685 3.19428 5.12466 3.21971C5.0474 3.28327 4.97015 3.35002 4.89611 3.41359C4.84783 3.45808 4.79632 3.4994 4.74804 3.5439C4.7416 3.55026 4.73838 3.55344 4.73194 3.55979C4.7255 3.56297 4.72228 3.56933 4.71585 3.57251C4.65469 3.62654 4.59674 3.68057 4.5388 3.7346C4.3521 3.90942 4.17183 4.08741 3.99479 4.26857C3.99157 4.27493 3.98513 4.27811 3.98191 4.28447C3.97547 4.29082 3.97226 4.294 3.96582 4.30036C3.95938 4.30671 3.95616 4.30989 3.94972 4.31625C3.8435 4.42749 3.74049 4.54191 3.63748 4.65634L3.6246 4.67223C3.59241 4.71037 3.557 4.74533 3.52481 4.78347C3.49262 4.82161 3.46043 4.85975 3.42824 4.89789C3.35099 4.99007 3.27373 5.08224 3.19969 5.17441C3.12244 5.26976 3.04518 5.3683 2.97114 5.46683C2.95505 5.48907 2.93895 5.51132 2.92286 5.53039C2.90676 5.55264 2.89067 5.57489 2.87457 5.59396C2.8456 5.6321 2.81985 5.66706 2.79088 5.7052C2.73616 5.78149 2.68143 5.85459 2.62671 5.93405C2.61705 5.94994 2.60418 5.96583 2.59452 5.98172C2.58486 5.99762 2.57199 6.01033 2.56233 6.02622V6.0294C2.48507 6.14064 2.40782 6.25506 2.33378 6.36949C2.30481 6.41081 2.27906 6.4553 2.25331 6.49662C2.23721 6.52205 2.22112 6.54748 2.20502 6.5729V6.57926H2.2018C2.19214 6.59515 2.18249 6.61104 2.17283 6.62694C2.15674 6.65236 2.14064 6.68097 2.12455 6.70957C2.10845 6.73818 2.09236 6.76361 2.07626 6.79221C2.05373 6.83035 2.03119 6.86532 2.01188 6.90346C1.98935 6.9416 1.97003 6.97656 1.9475 7.0147C1.91853 7.06238 1.89278 7.11005 1.86702 7.15773C1.72861 7.40882 1.59663 7.66309 1.47109 7.92372C1.44212 7.98093 1.41636 8.03814 1.39061 8.09853V8.10489C1.39061 8.10489 1.38095 8.12713 1.37774 8.13667C1.3552 8.18435 1.33267 8.23202 1.31336 8.28288C1.26829 8.38458 1.22322 8.48629 1.18138 8.588C1.17172 8.61343 1.15884 8.63885 1.14919 8.66428V8.66746C1.13953 8.69289 1.12987 8.72149 1.117 8.74692C1.10734 8.77235 1.09446 8.80095 1.08481 8.82638C1.05262 8.9122 1.01721 8.99801 0.985016 9.08701C0.978578 9.1029 0.975359 9.11561 0.968921 9.12833V9.13468C0.93995 9.21096 0.914198 9.28725 0.888446 9.36353C0.872351 9.4112 0.856256 9.46206 0.840161 9.50973C0.817628 9.57648 0.795095 9.64322 0.775781 9.70997V9.71951H0.772562C0.772562 9.71951 0.762905 9.74811 0.759686 9.764V9.77036C0.721058 9.90067 0.68243 10.0278 0.647021 10.1581C0.640583 10.1772 0.637364 10.1963 0.630926 10.2153V10.2249C0.608393 10.3043 0.589078 10.387 0.566545 10.4696C0.560107 10.4919 0.556888 10.5109 0.55045 10.5332C0.55045 10.5427 0.544012 10.5522 0.544012 10.565C0.544012 10.6031 0.547231 10.6412 0.55045 10.6794V10.7366C0.553669 10.8002 0.556888 10.8637 0.563326 10.9241H0.566545V10.9813C0.569764 11.0385 0.576202 11.0957 0.58264 11.153V11.1689C0.585859 11.2197 0.592297 11.2674 0.598736 11.3182V11.3278C0.601955 11.3627 0.605174 11.3977 0.611612 11.4327H0.614831V11.4676C0.61805 11.4994 0.624488 11.5312 0.627707 11.563H0.630926V11.5916C0.634145 11.6202 0.637364 11.6488 0.643802 11.6774H0.647021V11.7092C0.65024 11.741 0.656678 11.7759 0.663116 11.8077V11.8141C0.672773 11.8776 0.68243 11.938 0.695306 12.0016V12.0079C0.698525 12.0334 0.704963 12.0588 0.708182 12.081V12.0969C0.711401 12.1192 0.717839 12.1414 0.721058 12.1637H0.724277V12.1828C0.727496 12.2018 0.733934 12.2241 0.737153 12.2431H0.740372V12.2654C0.743591 12.2845 0.750029 12.3067 0.753248 12.3258H0.756467V12.3449C0.759686 12.3671 0.766124 12.3862 0.769343 12.4084V12.4211C0.775781 12.4434 0.779 12.4656 0.785438 12.4911V12.4974C0.801533 12.5673 0.817628 12.6341 0.833723 12.704C0.836942 12.7199 0.840161 12.7358 0.846599 12.7517H0.849818V12.7708C0.849818 12.7708 0.859475 12.8025 0.862694 12.8184H0.865913V12.8343C0.869132 12.8502 0.87557 12.8661 0.878789 12.882H0.882008V12.8947C0.885227 12.9106 0.891665 12.9297 0.894884 12.9456V12.9551C0.901322 12.9742 0.904541 12.9932 0.910979 13.0123C0.920636 13.0536 0.933512 13.0886 0.943169 13.1267C0.959264 13.1839 0.975359 13.238 0.991454 13.2888C0.994673 13.3079 1.00111 13.3238 1.00433 13.3365V13.3429C1.00433 13.3429 1.01399 13.3715 1.01721 13.3842H1.02043V13.3937C1.02043 13.3937 1.03008 13.4191 1.0333 13.4319H1.03652V13.4446C1.03652 13.4446 1.04296 13.47 1.0494 13.4795H1.05262V13.4923L1.06549 13.5272H1.06871V13.5399C1.1009 13.6353 1.13309 13.7275 1.1685 13.8196C1.17816 13.8482 1.18781 13.8737 1.19747 13.9023V13.9086C1.19747 13.9086 1.20713 13.9372 1.21357 13.9499L1.22644 13.9817H1.22966V13.9944C1.22966 13.9944 1.23932 14.0199 1.24576 14.0326C1.25541 14.0612 1.26507 14.0898 1.27795 14.1152V14.1216C1.2876 14.147 1.29726 14.1724 1.31014 14.1979V14.2042C1.31979 14.2296 1.33267 14.2551 1.34233 14.2805C1.37452 14.36 1.40671 14.4331 1.4389 14.5093L1.45177 14.5411V14.5475C1.46787 14.5824 1.48396 14.6206 1.50006 14.6555L1.51615 14.6873L1.52903 14.7191V14.7255L1.5419 14.7541H1.54512V14.7604C1.61272 14.9003 1.68354 15.0401 1.75436 15.1768H1.75758V15.1863L1.77045 15.2118H1.77367V15.2181L1.78655 15.2435V15.2499L1.80264 15.2785C1.80264 15.2785 1.8123 15.3008 1.81874 15.3103C1.84449 15.3611 1.87346 15.4088 1.89921 15.4565C1.90887 15.4756 1.91853 15.4946 1.9314 15.5137C1.85737 14.9734 1.81874 14.4235 1.81874 13.8673C1.72539 7.3961 6.94984 2.03417 13.5198 1.70997C13.7291 1.70044 13.9415 1.69408 14.154 1.69408C17.064 1.69408 19.8355 2.68892 22.0405 4.48153L20.0737 5.60032C20.0351 5.57489 19.9965 5.54628 19.9578 5.52086H19.9514V5.5145L19.9353 5.50497C19.9353 5.50497 19.9192 5.49543 19.9096 5.48907H19.8999V5.48272L19.8838 5.47318L19.8581 5.45729H19.8484V5.45093L19.8323 5.4414L19.8066 5.42551H19.7969V5.41915C19.7969 5.41915 19.7679 5.40008 19.7551 5.39054H19.7486C19.7486 5.39054 19.7196 5.36829 19.7035 5.35876H19.6971L19.6778 5.34287H19.6649V5.33651L19.652 5.32698C19.652 5.32698 19.6359 5.31426 19.6295 5.31108H19.6199V5.30473C19.6199 5.30473 19.5909 5.28566 19.5748 5.2793H19.5683C19.5683 5.2793 19.5362 5.25705 19.5201 5.24752C19.4943 5.23162 19.4653 5.21573 19.4396 5.19984C19.4138 5.18395 19.3849 5.16806 19.3559 5.15216C19.3559 5.15216 19.3366 5.14263 19.3269 5.13627H19.3205C19.2947 5.1172 19.2658 5.10131 19.24 5.0886C19.24 5.0886 19.2207 5.07906 19.211 5.07271H19.2046L19.1788 5.05681H19.1692C19.1692 5.05681 19.1563 5.0441 19.1467 5.04092H19.1338V5.03456L19.1145 5.02503H19.0984V5.01549L19.0823 5.00596C19.0823 5.00596 19.063 4.99325 19.0533 4.99007H19.0501C19.0501 4.99007 19.0308 4.97735 19.0243 4.97418H19.0179L18.9921 4.95828H18.9825L18.96 4.94239H18.9503V4.93603L18.9278 4.9265H18.9149V4.92014C18.799 4.85975 18.6799 4.80254 18.564 4.74851H18.5544V4.74215C18.5544 4.74215 18.5383 4.7358 18.5286 4.72944H18.519C18.519 4.72944 18.4996 4.71673 18.4932 4.71355H18.4868C18.4868 4.71355 18.4674 4.70083 18.4578 4.69766H18.4546C18.4546 4.69766 18.432 4.68494 18.4224 4.68176H18.4063V4.67541L18.387 4.66587H18.3741V4.65952L18.3516 4.64998H18.3419C18.3419 4.64998 18.3226 4.63727 18.3129 4.63409H18.3065C18.3065 4.63409 18.284 4.62137 18.2743 4.6182H18.2582V4.61184L18.2389 4.6023H18.226V4.59595L18.2003 4.58323H18.1938L18.1616 4.56734C18.1359 4.55463 18.1101 4.54509 18.0844 4.53556H18.0812C18.0264 4.51331 17.9749 4.49106 17.9202 4.46881H17.9138C17.888 4.4561 17.8591 4.44656 17.8333 4.43703C17.8333 4.43703 17.8043 4.42431 17.7915 4.42114H17.7818L17.7464 4.40524H17.7335V4.39889C17.7335 4.39889 17.7142 4.39253 17.7013 4.38617H17.682V4.37982L17.6563 4.37028H17.6498C17.6498 4.37028 17.6241 4.35757 17.6112 4.35439H17.6015L17.5629 4.3385H17.55L17.5146 4.32261H17.5017V4.31625L17.4663 4.30354H17.4502V4.29718C17.3537 4.2654 17.2571 4.23361 17.1573 4.20501H17.1509C17.1348 4.19865 17.1187 4.19229 17.0994 4.18911H17.0833L17.0446 4.17322H17.035C17.035 4.17322 17.0028 4.16051 16.9867 4.15733H16.9674V4.15097C16.9674 4.15097 16.9416 4.14462 16.9288 4.14144H16.903V4.13508C16.903 4.13508 16.8805 4.12872 16.8708 4.12555H16.8547C16.8547 4.12555 16.8258 4.11283 16.8097 4.10965H16.7903V4.1033C16.7903 4.1033 16.7614 4.09694 16.7485 4.09376H16.726V4.08741C16.726 4.08741 16.7002 4.08105 16.6873 4.07787H16.6777C16.6584 4.07151 16.6391 4.06516 16.6197 4.06198H16.6101C16.5908 4.05562 16.5715 4.04926 16.5521 4.04609H16.5457C16.5232 4.03973 16.5039 4.03337 16.4813 4.03019C16.4588 4.02384 16.4363 4.01748 16.4105 4.0143H16.3976C16.3783 4.00795 16.3558 4.00159 16.3365 3.99841H16.3172C16.2978 3.98888 16.2785 3.9857 16.2592 3.98252H16.2335V3.97616C16.2141 3.97298 16.1948 3.96981 16.1755 3.96345H16.1498V3.95709C16.1304 3.95391 16.1111 3.95073 16.0918 3.94438H16.0693C16.0468 3.93484 16.0274 3.93166 16.0049 3.92849H15.9695V3.92213C15.9502 3.91895 15.9309 3.91577 15.9116 3.91259H15.889C15.8633 3.90306 15.8375 3.89988 15.815 3.8967H15.8085C15.7764 3.89035 15.7442 3.88399 15.712 3.88081C15.6734 3.87445 15.6379 3.8681 15.5993 3.86492H15.5639V3.85856C15.5349 3.85538 15.506 3.8522 15.477 3.84585H15.4319V3.83949C15.403 3.83631 15.374 3.83313 15.3418 3.82996H15.2838V3.8236C15.2517 3.82042 15.2195 3.81724 15.1873 3.81406H15.1358V3.80771C15.0939 3.80453 15.0489 3.80135 15.007 3.79499H15.0038C14.9265 3.78864 14.8525 3.78228 14.7752 3.7791H14.64V3.77275C14.5467 3.76957 14.4501 3.76639 14.3568 3.76321H14.2119C14.1926 3.76321 14.1733 3.76321 14.154 3.76321C14.125 3.76321 14.0928 3.76321 14.0638 3.76321H13.9995C13.8514 3.76321 13.7001 3.76957 13.5552 3.7791H13.5456C13.478 3.78228 13.4072 3.78864 13.3396 3.79182H13.3074C13.2462 3.79817 13.1851 3.80135 13.1239 3.80771H13.1207C13.0724 3.81406 13.0241 3.81724 12.9758 3.8236H12.9726C12.9308 3.82996 12.8889 3.83313 12.8438 3.83949H12.831C12.7923 3.84585 12.7537 3.84903 12.7119 3.85538C12.641 3.86492 12.5702 3.87445 12.4962 3.88717H12.4898C12.4576 3.89352 12.4286 3.8967 12.3964 3.90306H12.39C12.3578 3.90942 12.3288 3.91259 12.2966 3.91895C12.2709 3.92531 12.2419 3.92849 12.2161 3.93484H12.2097C12.1292 3.95073 12.0487 3.96663 11.9683 3.98252C11.92 3.99205 11.8717 4.00159 11.8202 4.0143H11.817C11.7977 4.01748 11.7751 4.02384 11.7558 4.03019H11.7494C11.6625 4.04926 11.5756 4.07151 11.4919 4.09376C11.4532 4.1033 11.4178 4.11283 11.3792 4.12237H11.3695C11.3502 4.12872 11.3309 4.1319 11.3116 4.13826C11.0251 4.21772 10.7483 4.30989 10.4714 4.41478C10.4457 4.42431 10.4167 4.43385 10.391 4.44656H10.3877C10.362 4.4561 10.3362 4.46881 10.3105 4.47835H10.3073C10.2815 4.48788 10.2558 4.5006 10.23 4.51013C10.1528 4.54191 10.0755 4.5737 10.0015 4.60548H9.99824C9.94995 4.62773 9.90167 4.6468 9.85338 4.66905C9.84373 4.67541 9.83085 4.67859 9.82119 4.68494H9.81797C9.57655 4.79619 9.34156 4.91379 9.11301 5.04092C9.07438 5.06317 9.03575 5.08224 9.00035 5.10449C8.87158 5.17759 8.74604 5.25387 8.62372 5.33015H8.6205C8.50462 5.40326 8.38873 5.47954 8.27607 5.55582C8.25997 5.56536 8.24388 5.57807 8.22778 5.5876C8.20525 5.6035 8.18272 5.61939 8.1634 5.63528H8.16018C8.07649 5.69249 7.99602 5.75288 7.91554 5.81327C7.86726 5.85141 7.81575 5.88637 7.76747 5.92451C7.74171 5.94676 7.71274 5.96583 7.68699 5.98808C7.61939 6.04211 7.55501 6.09615 7.49063 6.15018C7.452 6.18196 7.41338 6.21375 7.37797 6.24553C7.22667 6.37584 7.0786 6.51251 6.93374 6.65236C6.93374 6.65236 6.92409 6.6619 6.91765 6.66826C6.88868 6.69368 6.86292 6.72229 6.83717 6.74771C6.83073 6.75407 6.82752 6.75725 6.82108 6.76361C6.67944 6.90663 6.54102 7.05284 6.40904 7.20222C6.37685 7.24037 6.34466 7.27533 6.31247 7.31347C6.25775 7.37704 6.20303 7.44378 6.14831 7.50735C6.12577 7.53278 6.10324 7.56138 6.08392 7.58681C6.0453 7.63448 6.00667 7.68534 5.96804 7.73302C5.93585 7.77433 5.90366 7.81883 5.86825 7.86333C5.83928 7.90147 5.81353 7.93643 5.78778 7.97457C5.76202 8.01271 5.73305 8.05085 5.7073 8.08582C5.6397 8.18117 5.57532 8.27652 5.51094 8.37505V8.37823C5.50128 8.39412 5.49163 8.41001 5.48197 8.4259C5.4015 8.54986 5.32746 8.67382 5.25342 8.79777C5.23089 8.83591 5.21157 8.87406 5.18904 8.9122C5.06028 9.14104 4.93796 9.37306 4.82529 9.61144C4.80276 9.65912 4.78023 9.70361 4.76091 9.75129V9.75765C4.76091 9.75765 4.75126 9.7799 4.74804 9.78943C4.70297 9.89114 4.6579 9.99285 4.61606 10.0977C4.6064 10.1232 4.59352 10.1518 4.58387 10.1772C4.54846 10.263 4.51627 10.3488 4.48408 10.4346C4.41326 10.6317 4.34566 10.8319 4.28772 11.0322V11.0354C4.27806 11.0703 4.26519 11.1085 4.25553 11.1434V11.1466C4.22656 11.2483 4.20081 11.35 4.17505 11.4549C4.16862 11.4772 4.1654 11.4994 4.15896 11.5185C4.14608 11.5661 4.13642 11.6138 4.12677 11.6615V11.6679C4.11067 11.7441 4.09458 11.8204 4.07848 11.8935C4.06883 11.9507 4.05595 12.0048 4.04629 12.062V12.0715C4.03985 12.1001 4.03664 12.1287 4.0302 12.1573V12.17C4.0141 12.2718 3.99801 12.3735 3.98191 12.4752V12.4815C3.97547 12.5197 3.97226 12.5546 3.96582 12.5928V12.6118C3.95938 12.6532 3.95616 12.6945 3.95294 12.7358V12.7422C3.9465 12.7898 3.94328 12.8407 3.93685 12.8884C3.93041 12.9487 3.92397 13.0091 3.92075 13.0727V13.1013C3.90144 13.3619 3.89178 13.6226 3.89178 13.8896C3.89178 14.0358 3.89178 14.1788 3.90144 14.325H3.90788V14.4712C3.91431 14.5983 3.92397 14.7223 3.93685 14.8462H3.94007V14.8939C3.94007 14.9257 3.9465 14.9607 3.94972 14.9924H3.95616V15.0497C3.95938 15.0783 3.9626 15.11 3.96582 15.1387H3.97226V15.1832C3.97547 15.2118 3.97869 15.2404 3.98191 15.269H3.98835V15.3071C3.99479 15.3421 3.99801 15.3802 4.00445 15.4152C4.01088 15.4501 4.0141 15.4819 4.02054 15.5137V15.5232C4.02376 15.5455 4.02698 15.5709 4.03342 15.5932H4.03664V15.6218C4.03986 15.644 4.04629 15.6694 4.04951 15.6917H4.05273V15.7139C4.05595 15.733 4.05917 15.7521 4.06239 15.7743H4.06883V15.8029C4.07205 15.822 4.07526 15.8379 4.07848 15.857H4.08492V15.8888C4.08814 15.9046 4.09136 15.9237 4.09458 15.9396H4.10102V15.9682C4.10423 15.9905 4.11067 16.0127 4.11711 16.035V16.0445C4.12355 16.0699 4.12677 16.0922 4.13321 16.1176C4.1493 16.1843 4.16218 16.2479 4.17827 16.3147H4.18149V16.3306C4.18471 16.3464 4.19115 16.3623 4.19437 16.3814H4.19759V16.3973C4.20081 16.4132 4.20724 16.4291 4.21046 16.445H4.21368V16.4609C4.2169 16.4768 4.22334 16.4958 4.22656 16.5117V16.5244C4.22656 16.5244 4.233 16.5499 4.23621 16.5626H4.24265V16.5848C4.24265 16.5848 4.24909 16.6134 4.25553 16.6261H4.25875V16.642C4.26197 16.6579 4.2684 16.6738 4.27162 16.6897V16.6992C4.27162 16.6992 4.27806 16.7247 4.2845 16.7374H4.29094V16.7533C4.29416 16.7692 4.30059 16.7851 4.30381 16.801V16.8073C4.31347 16.8423 4.32635 16.8772 4.336 16.9154C4.34244 16.9313 4.34566 16.9472 4.3521 16.9631C4.35532 16.9821 4.36176 16.998 4.36819 17.0107V17.0171C4.36819 17.0171 4.37785 17.0457 4.38107 17.0616V17.0679C4.38107 17.0679 4.39073 17.0965 4.39395 17.1093V17.1156C4.39395 17.1156 4.4036 17.1442 4.40682 17.1569V17.1633C4.40682 17.1633 4.41648 17.1919 4.4197 17.2046V17.211L4.42935 17.2364H4.43579V17.2555C4.43579 17.2555 4.44223 17.2745 4.44545 17.2841H4.45189V17.3C4.45189 17.3 4.45833 17.3222 4.46476 17.3317H4.4712V17.3445C4.4712 17.3445 4.48086 17.3667 4.48408 17.3794H4.4873V17.389L4.50339 17.4271V17.4335C4.51305 17.4589 4.52271 17.4843 4.53236 17.5097H4.53558V17.5193C4.53558 17.5193 4.54524 17.5447 4.55168 17.5574C4.57421 17.6146 4.59352 17.6687 4.61606 17.7195V17.7259C4.62571 17.7513 4.63859 17.7767 4.64825 17.8021C4.64825 17.8021 4.6579 17.8244 4.66112 17.8339H4.66434V17.8435L4.674 17.8657H4.68044V17.8816C4.68044 17.8816 4.69009 17.9039 4.69653 17.9166L4.70941 17.9483H4.71263V17.9579L4.72228 17.9833H4.72872V17.996L4.74482 18.031C4.74482 18.031 4.75447 18.0532 4.75769 18.0628V18.0691C4.75769 18.0691 4.76735 18.0882 4.77057 18.0977H4.77379V18.1073L4.78666 18.1327H4.7931V18.1454C4.8092 18.1804 4.82529 18.2153 4.84139 18.2471C4.86714 18.3043 4.89289 18.3552 4.92186 18.4092H4.92508V18.4156L4.93796 18.441H4.94118V18.4474C4.94118 18.4474 4.95083 18.4632 4.95405 18.4728H4.95727V18.4791C4.95727 18.4791 4.96693 18.495 4.97015 18.5046H4.97337V18.5109L4.98624 18.5364V18.5427L4.99912 18.5713C4.99912 18.5713 5.00878 18.5936 5.01521 18.6031C5.01521 18.6031 5.02487 18.6253 5.03131 18.6349C5.04097 18.654 5.0474 18.6667 5.05706 18.6826H5.0635V18.6953L5.07316 18.7143H5.07959V18.7271L5.09247 18.7493H5.09891V18.7588L5.11178 18.7811H5.115V18.7874L5.1311 18.8129C5.17295 18.8923 5.21801 18.9654 5.25986 19.0417C5.27595 19.0703 5.29205 19.0989 5.30814 19.1244C5.3178 19.1434 5.32746 19.1593 5.3339 19.172H5.34033V19.1816C5.34033 19.1816 5.34999 19.1975 5.35321 19.2038C5.36287 19.2229 5.37252 19.2388 5.38218 19.2515H5.3854V19.2578C5.3854 19.2578 5.39506 19.2737 5.4015 19.2833L5.41115 19.2992H5.41759V19.3087L5.43047 19.3309C5.44012 19.35 5.44978 19.3659 5.45944 19.3786H5.46266V19.385C5.46266 19.385 5.48197 19.4136 5.49163 19.4263H5.49807V19.4327C5.51416 19.4581 5.53026 19.4803 5.54635 19.5058C5.55601 19.5217 5.56888 19.5375 5.57854 19.5534C5.57854 19.5534 5.59142 19.5725 5.59785 19.5852" fill="white"/>
<path fill-rule="evenodd" clip-rule="evenodd" d="M13.9513 27.938H13.7742C13.5682 27.9317 13.3622 27.9221 13.1594 27.9094H13.1175C13.0596 27.9062 13.0049 27.8999 12.9469 27.8967H12.918C12.7602 27.884 12.6057 27.8681 12.4512 27.849H12.4383C12.4029 27.8458 12.3707 27.8427 12.3353 27.8363L12.3063 27.8331C12.2709 27.83 12.2387 27.8236 12.2033 27.8204H12.1872C12.1486 27.8141 12.11 27.8109 12.0714 27.8045C11.9716 27.7886 11.875 27.7759 11.7752 27.7569H11.7623C11.7334 27.7537 11.7044 27.7473 11.6786 27.7441H11.6658C11.6432 27.741 11.6207 27.7346 11.5982 27.7314L11.5788 27.7282C11.5531 27.7219 11.5273 27.7187 11.4984 27.7124H11.4919C11.3825 27.6933 11.2763 27.671 11.1668 27.6488C11.1443 27.6456 11.125 27.6393 11.1024 27.6361H11.0928C11.0702 27.6297 11.0445 27.6265 11.022 27.6202H11.0187C10.9994 27.617 10.9769 27.6106 10.9576 27.6075H10.9447C10.9254 27.6043 10.9093 27.5979 10.89 27.5948H10.8771C10.8095 27.5789 10.7419 27.563 10.6743 27.5471C10.6518 27.5407 10.6325 27.5375 10.6099 27.5312C10.5488 27.5153 10.4908 27.4994 10.4297 27.4835C10.391 27.474 10.3556 27.4644 10.317 27.4517H10.3073C10.2719 27.4422 10.2365 27.4295 10.2011 27.4199H10.1947C10.1593 27.4104 10.1206 27.3977 10.0852 27.3882C10.0144 27.3659 9.94359 27.3468 9.87277 27.3246C9.85668 27.3182 9.84058 27.3151 9.82449 27.3087C9.80839 27.3023 9.7923 27.2992 9.7762 27.2928C9.76011 27.2865 9.74401 27.2833 9.72792 27.2769H9.7247C9.7086 27.2706 9.69573 27.2674 9.67963 27.261H9.67319C9.6571 27.2547 9.64422 27.2515 9.62813 27.2451H9.62169C9.60559 27.2388 9.59272 27.2356 9.57662 27.2292C9.56053 27.2229 9.54443 27.2197 9.53156 27.2133C9.40923 27.172 9.29013 27.1275 9.16781 27.083C9.14206 27.0735 9.11309 27.064 9.08733 27.0513H9.08089C9.05514 27.0417 9.02939 27.0322 9.00364 27.0226L8.99398 27.0195C8.98111 27.0131 8.96823 27.0099 8.95535 27.0036C8.9457 27.0004 8.93282 26.994 8.92316 26.9909L8.91351 26.9877C8.7944 26.94 8.6753 26.8923 8.55942 26.8415C8.51113 26.8192 8.45963 26.8002 8.41134 26.7779H8.40812C8.39847 26.7747 8.38881 26.7684 8.37915 26.7652L8.36949 26.762C8.33409 26.7461 8.29868 26.7302 8.26327 26.7143C8.25361 26.708 8.24073 26.7048 8.23108 26.6984L8.19889 26.6857H8.19567C8.04759 26.6158 7.89952 26.5459 7.75466 26.4728C7.60015 26.3933 7.44564 26.3139 7.29435 26.228C7.26537 26.2122 7.23962 26.1994 7.21065 26.1835L7.20421 26.1804C7.19456 26.174 7.1849 26.1708 7.17846 26.1645C7.15271 26.1486 7.12374 26.1327 7.09799 26.12L7.09155 26.1168C7.08189 26.1104 7.07223 26.1073 7.0658 26.1009C7.04004 26.085 7.01107 26.0691 6.98532 26.0532C6.88553 25.996 6.78896 25.9356 6.68917 25.8752C6.64733 25.8498 6.60226 25.8212 6.56041 25.7958H6.55719C6.5411 25.7863 6.525 25.7767 6.51213 25.7672H6.50891C6.49281 25.7576 6.47994 25.7481 6.46384 25.7386H6.46062C6.36083 25.675 6.26426 25.6114 6.16769 25.5447C6.1516 25.5352 6.1355 25.5224 6.11941 25.5129C6.09688 25.497 6.07434 25.4843 6.05503 25.4684L6.04859 25.4652C6.03249 25.4557 6.01962 25.4462 6.00352 25.4366H6.0003C5.96168 25.4112 5.92627 25.3826 5.88764 25.3572C5.77819 25.2777 5.66875 25.1982 5.5593 25.1156C5.53677 25.0997 5.51745 25.0838 5.49492 25.0679C5.48848 25.0648 5.48526 25.0616 5.47883 25.0552L5.47239 25.052C5.45307 25.0362 5.43376 25.0203 5.41123 25.0044C5.38547 24.9821 5.3565 24.9631 5.33075 24.9408C5.305 24.9186 5.27603 24.8995 5.25028 24.8772C5.18268 24.8232 5.1183 24.7692 5.05392 24.7151L5.03782 24.7024H5.0346C5.00241 24.677 4.97022 24.6484 4.93803 24.623C4.93159 24.6198 4.92838 24.6134 4.92194 24.6102L4.91872 24.6071C4.88009 24.5753 4.84468 24.5403 4.80605 24.5085L4.78996 24.4926C4.74167 24.4482 4.69339 24.4068 4.6451 24.3623C4.54531 24.2702 4.44552 24.178 4.34895 24.0858L4.28457 24.0222C4.22985 23.9682 4.17513 23.9142 4.1204 23.8601L4.10753 23.8443L4.05924 23.7966C3.96589 23.7012 3.87254 23.6027 3.77919 23.5042C3.7309 23.4501 3.6794 23.3961 3.63112 23.3421C3.59893 23.3071 3.56352 23.269 3.53133 23.234L3.52811 23.2308C3.52489 23.2276 3.51845 23.2213 3.51523 23.2181C3.48304 23.18 3.45085 23.1418 3.41866 23.1037C3.3414 23.0115 3.26415 22.9225 3.19011 22.8304C3.16758 22.8049 3.14826 22.7795 3.12573 22.7509C3.1032 22.7255 3.08388 22.6969 3.06135 22.6714C3.04526 22.6524 3.02916 22.6301 3.01307 22.611V22.6079C2.95834 22.5379 2.90362 22.468 2.85212 22.3949C2.82314 22.3568 2.79739 22.3218 2.76842 22.2837C2.75233 22.2614 2.73623 22.2423 2.72014 22.2201C2.71048 22.2042 2.6976 22.1915 2.68795 22.1756V22.1692H2.68473C2.66863 22.147 2.65576 22.1247 2.63966 22.1057C2.63 22.0898 2.61713 22.0739 2.60747 22.058C2.51734 21.9309 2.43043 21.8037 2.34351 21.6734V21.6671H2.34029C2.34029 21.6671 2.32098 21.6385 2.31132 21.6226V21.6162H2.3081C2.3081 21.6162 2.28879 21.5844 2.27913 21.5685C2.25016 21.5272 2.22441 21.4827 2.19866 21.4414C2.13106 21.3333 2.06668 21.2284 2.0023 21.1204V21.1172C1.9862 21.0918 1.97011 21.0632 1.95401 21.0377C1.94757 21.0282 1.94436 21.0187 1.93792 21.0091V21.0028C1.91538 20.9646 1.89607 20.9297 1.87354 20.8915C1.851 20.8534 1.83169 20.8153 1.80916 20.7771C1.75765 20.6849 1.70937 20.5928 1.66108 20.5006C1.65464 20.4911 1.65143 20.4815 1.64499 20.472C1.63855 20.4625 1.63533 20.4529 1.62889 20.4434V20.4402C1.62245 20.4307 1.61924 20.4211 1.6128 20.4116V20.4084C1.60636 20.3989 1.60314 20.3894 1.5967 20.3798V20.3766C1.59026 20.3671 1.58705 20.3576 1.58061 20.348V20.3449C1.57417 20.3353 1.57095 20.3258 1.56451 20.3162V20.3131L1.54842 20.2845C1.5452 20.2749 1.53876 20.2654 1.53232 20.2559C1.48082 20.1542 1.43253 20.0524 1.38425 19.9507V19.9476C1.38103 19.938 1.37459 19.9285 1.37137 19.9158C1.35528 19.8808 1.33918 19.8458 1.32309 19.8109V19.8013H1.31987C1.31987 19.8013 1.31021 19.7823 1.30699 19.7727V19.7696C1.28446 19.7219 1.26514 19.6742 1.24261 19.6234C1.22652 19.5852 1.21042 19.5471 1.19433 19.5121C1.18467 19.4867 1.17179 19.4613 1.16214 19.4327C1.15248 19.4072 1.1396 19.3818 1.12995 19.3564V19.35C1.12029 19.3246 1.11063 19.2992 1.09776 19.2737V19.2674C1.0881 19.242 1.07844 19.2165 1.06879 19.1911V19.1847C1.05913 19.1593 1.04947 19.1307 1.03659 19.1053C0.997967 19.0036 0.959339 18.9019 0.920711 18.797C0.914273 18.7811 0.911054 18.7684 0.904616 18.7525V18.7493C0.898178 18.7366 0.894959 18.7207 0.888521 18.708V18.7016C0.888521 18.7016 0.878864 18.6762 0.875645 18.6635V18.654H0.872426C0.872426 18.654 0.862769 18.6285 0.85955 18.619V18.6063H0.856331C0.798388 18.441 0.746884 18.2725 0.69538 18.1041V18.1009C0.685723 18.066 0.672847 18.031 0.66319 17.996V17.9865C0.66319 17.9865 0.653533 17.9547 0.650314 17.9388C0.643876 17.9197 0.640657 17.9007 0.634219 17.8816V17.8752C0.624562 17.8371 0.614905 17.799 0.602029 17.7608C0.573058 17.6559 0.547306 17.5511 0.518335 17.443V17.4335C0.515116 17.4144 0.508678 17.3953 0.505459 17.3762V17.3699C0.50224 17.3508 0.495802 17.3317 0.489364 17.3095V17.3031C0.482926 17.2809 0.479707 17.2618 0.473269 17.2396V17.2237H0.47005C0.466831 17.2046 0.460393 17.1855 0.457174 17.1665V17.1601C0.447517 17.1124 0.434641 17.0648 0.424984 17.0171V17.0139C0.408888 16.9344 0.392793 16.855 0.376698 16.7755V16.7723C0.37026 16.7469 0.367041 16.7183 0.360603 16.6929V16.677H0.357384C0.354165 16.6547 0.347727 16.6325 0.344508 16.6102V16.5975C0.33807 16.5689 0.334851 16.5435 0.331632 16.5149V16.499C0.309099 16.3655 0.286566 16.232 0.267252 16.0954H0.141711V16.0922C0.135273 16.054 0.132054 16.0159 0.125616 15.9809V15.9619C0.122397 15.9269 0.115959 15.8888 0.11274 15.8538V15.8315C0.106302 15.7902 0.103083 15.7521 0.0998637 15.7108V15.7012C0.0869876 15.5963 0.0773306 15.4946 0.0676736 15.3897V15.377C0.0612356 15.3198 0.0580166 15.2626 0.0515786 15.2086V15.1514H0.0483595C0.0451405 15.0846 0.0387025 15.0211 0.0354835 14.9543V14.9416C0.0290455 14.8272 0.0226075 14.7128 0.0193885 14.5952V14.468H0.0161695C0.0161695 14.3568 0.0129505 14.2455 0.0129505 14.1311C0.531211 16.2193 1.58705 18.0946 3.03882 19.6011C4.43587 21.0505 6.19345 22.1597 8.18601 22.789C8.50469 22.8907 8.82659 22.9766 9.14849 23.0528C12.4802 23.8188 15.9824 23.1736 18.8087 21.2888C19.2079 21.0346 19.5877 20.7485 19.9386 20.437L18.4289 19.5757L21.796 17.6559L22.3851 17.319L26.3444 15.0624V24.0858L24.8862 23.2531C24.8476 23.2976 24.8058 23.3421 24.7671 23.3866L24.7542 23.4025C24.7542 23.4025 24.7478 23.4152 24.7414 23.4184H24.7381V23.4247C24.6995 23.466 24.6609 23.5073 24.6223 23.5487C24.6223 23.5487 24.6126 23.5582 24.6094 23.5646L24.5965 23.5805H24.5933L24.5804 23.5963H24.5772V23.6027C24.5032 23.6822 24.4259 23.7616 24.3486 23.8411L24.31 23.8888H24.3068L24.2939 23.9046H24.2907C24.2907 23.9046 24.281 23.9174 24.2778 23.9205H24.2746C24.2746 23.9205 24.265 23.9333 24.2617 23.9364H24.2585L24.2456 23.9523H24.2424L24.2295 23.9682H24.2263L24.2135 23.9841H24.2102L24.1974 24H24.1941L24.1813 24.0159H24.178C24.178 24.0159 24.1716 24.0286 24.1652 24.0318H24.1619C24.1619 24.0318 24.1555 24.0445 24.1491 24.0477H24.1459C24.1459 24.0477 24.1362 24.0604 24.133 24.0636H24.1298C24.1298 24.0636 24.1201 24.0763 24.1169 24.0795H24.1137L24.1008 24.0953H24.0976L24.0589 24.143L24.0428 24.1589C24.0428 24.1589 24.0332 24.1716 24.0267 24.1748C24.0267 24.1748 24.0171 24.1875 24.0107 24.1907C23.9366 24.2638 23.8594 24.3337 23.7821 24.4037H23.7789C23.7789 24.4037 23.7692 24.4164 23.7628 24.4195L23.7467 24.4354C23.7113 24.4672 23.6727 24.5022 23.6372 24.534H23.6308V24.5403L23.6179 24.5499H23.6147C23.6147 24.5499 23.6051 24.5626 23.6018 24.5658C23.6018 24.5658 23.5922 24.5785 23.5857 24.5816C23.5536 24.6102 23.5246 24.6357 23.4924 24.6643H23.486L23.4731 24.6802C23.4731 24.6802 23.4634 24.6929 23.457 24.6961C23.4184 24.7278 23.3797 24.7628 23.3411 24.7946C23.3153 24.8168 23.2896 24.8391 23.2606 24.8582H23.2574L23.2413 24.8741C23.2156 24.8963 23.1866 24.9186 23.1608 24.9408C23.1351 24.9631 23.1093 24.9853 23.0836 25.0075H23.0804C23.0546 25.0298 23.0289 25.052 22.9999 25.0711H22.9967C22.9709 25.0934 22.9419 25.1156 22.9162 25.1347C22.8454 25.1919 22.7746 25.2459 22.7037 25.2968C22.6812 25.3127 22.6619 25.3286 22.6394 25.3445C22.6394 25.3445 22.6104 25.3667 22.5943 25.3762H22.5879C22.5685 25.3953 22.546 25.4112 22.5267 25.4239H22.5235C22.5235 25.4239 22.4945 25.4462 22.4816 25.4557H22.4752V25.4621L22.4591 25.4716C22.4591 25.4716 22.4301 25.4938 22.414 25.5034H22.4108C22.3883 25.5224 22.3657 25.5383 22.3464 25.5511C22.3464 25.5511 22.3142 25.5733 22.3014 25.5828C22.1887 25.6623 22.076 25.7386 21.9601 25.8117H21.9537C21.9537 25.8117 21.9247 25.8339 21.9086 25.8435H21.9022C21.9022 25.8435 21.8732 25.8657 21.8571 25.8752H21.8539C21.8539 25.8752 21.8217 25.8975 21.8056 25.907C21.7799 25.9229 21.7541 25.9388 21.7284 25.9547H21.7219C21.7219 25.9547 21.6897 25.977 21.6737 25.9865C21.6286 26.0151 21.5867 26.0405 21.5417 26.0691C21.5063 26.0914 21.4676 26.1136 21.4322 26.1359H21.429C21.4033 26.1549 21.3775 26.1708 21.3485 26.1835C21.3485 26.1835 21.3324 26.1963 21.3228 26.1994H21.3163C21.3002 26.2122 21.2842 26.2217 21.2681 26.2312C21.2584 26.2376 21.2487 26.2408 21.2391 26.2471H21.2359L21.2101 26.263H21.2005C21.1747 26.2821 21.149 26.298 21.12 26.3107C21.12 26.3107 21.1007 26.3234 21.0942 26.3266H21.0878C21.0492 26.352 21.0105 26.3711 20.9719 26.3901C20.8786 26.441 20.7852 26.4887 20.6919 26.5364C20.6919 26.5364 20.6693 26.5459 20.6597 26.5522L20.6275 26.5681C20.6275 26.5681 20.6082 26.5808 20.5953 26.584C20.5953 26.584 20.576 26.5967 20.5663 26.5999C20.5663 26.5999 20.547 26.6126 20.5341 26.6158C20.5341 26.6158 20.5148 26.6285 20.5019 26.6317L20.4697 26.6476C20.4697 26.6476 20.4472 26.6571 20.4376 26.6635C20.4376 26.6635 20.415 26.673 20.4054 26.6794C20.3249 26.7175 20.2412 26.7557 20.1607 26.7938C20.1124 26.816 20.0642 26.8383 20.0191 26.8605H20.0126L19.9805 26.8764C19.9547 26.8892 19.9322 26.8987 19.9064 26.9082H19.8968C19.8968 26.9082 19.8774 26.9209 19.8678 26.9241H19.8646C19.8388 26.9368 19.8163 26.9464 19.7905 26.9559H19.7809C19.7809 26.9559 19.7616 26.9686 19.7519 26.9718H19.7487C19.7101 26.9909 19.6714 27.0036 19.6328 27.0195C19.5781 27.0417 19.5234 27.064 19.4719 27.0862C19.4461 27.0989 19.4171 27.1085 19.3914 27.118C19.3914 27.118 19.3656 27.1275 19.3495 27.1339H19.3399C19.3141 27.1466 19.2884 27.1561 19.2626 27.1657H19.2594C19.2594 27.1657 19.2336 27.1784 19.2208 27.1816H19.2111C19.1854 27.1943 19.1596 27.2038 19.1306 27.2133H19.1274L19.0856 27.2292H19.0791C19.0341 27.2483 18.9922 27.2642 18.9472 27.2769C18.9472 27.2769 18.915 27.2865 18.9021 27.2928H18.8989C18.8345 27.3151 18.7733 27.3373 18.7089 27.3596H18.7025C18.7025 27.3596 18.6735 27.3723 18.6607 27.3754H18.6542C18.6542 27.3754 18.6253 27.3882 18.6092 27.3913H18.6027C18.6027 27.3913 18.5705 27.4041 18.5577 27.4072C18.5416 27.4136 18.5255 27.4199 18.5094 27.4231C18.4933 27.4295 18.474 27.4327 18.4579 27.439H18.445C18.445 27.439 18.4192 27.4517 18.4064 27.4549H18.3967C18.3967 27.4549 18.3677 27.4676 18.3516 27.4708H18.3484C18.2937 27.4867 18.239 27.5026 18.1842 27.5185C18.1456 27.5312 18.107 27.5407 18.0684 27.5503C18.0491 27.5566 18.0297 27.5598 18.0072 27.5661H18.0008C17.9815 27.5725 17.9654 27.5789 17.946 27.582H17.9332C17.9171 27.5884 17.901 27.5948 17.8817 27.5979H17.8656L17.8173 27.6138H17.798C17.798 27.6138 17.769 27.6265 17.7529 27.6297H17.7304V27.6361C17.7304 27.6361 17.6982 27.6424 17.6853 27.6488H17.6821C17.6596 27.6551 17.6402 27.6615 17.6177 27.6647C17.5952 27.671 17.5759 27.6742 17.5533 27.6806C17.4568 27.7028 17.3602 27.7251 17.2636 27.7441H17.2572C17.2346 27.7505 17.2089 27.7569 17.1864 27.76H17.1735C17.1509 27.7664 17.1284 27.7727 17.1059 27.7759H17.093C17.0705 27.7823 17.0479 27.7886 17.0254 27.7918H17.0093C16.9868 27.7982 16.961 27.8045 16.9385 27.8077H16.9256C16.8999 27.8141 16.8741 27.8204 16.8484 27.8236H16.8419C16.813 27.83 16.7872 27.8363 16.7582 27.8395H16.7421C16.7164 27.8458 16.6874 27.8522 16.6617 27.8554C16.6295 27.8617 16.5973 27.8649 16.5651 27.8713C16.5329 27.8776 16.4975 27.8808 16.4653 27.8872H16.4492C16.417 27.8935 16.388 27.8999 16.3559 27.9031H16.3333C16.3043 27.9094 16.2722 27.9158 16.2432 27.9189H16.2174C16.1852 27.9253 16.1498 27.9317 16.1176 27.9348H16.0855C16.0533 27.9444 16.0211 27.9476 15.9889 27.9507H15.9696C15.8762 27.9634 15.7829 27.973 15.6895 27.9825H15.6573C15.609 27.9921 15.5608 27.9952 15.5157 27.9984H15.461V28.0048C15.4095 28.0079 15.3612 28.0111 15.3097 28.0175H15.2614C15.0586 28.0334 14.8558 28.0461 14.6498 28.0493H14.4502C14.3858 28.0556 14.3247 28.0556 14.2603 28.0556C14.1895 28.0556 14.1219 28.0556 14.0543 28.0556" fill="#ED5C02"/>
<path fill-rule="evenodd" clip-rule="evenodd" d="M87.351 27.9253C96.1582 27.9253 101.692 21.6226 101.692 14.0453C101.692 6.46802 96.1164 0.00317839 87.351 0.00317839C78.5856 0.00317839 73.0103 6.38538 73.0103 14.0453C73.0103 21.7052 78.5438 27.9253 87.351 27.9253ZM87.351 21.4636C82.545 21.4636 79.796 17.9134 79.796 13.9658C79.796 10.0183 82.5836 6.46802 87.351 6.46802C92.1184 6.46802 94.906 9.93882 94.906 13.9658C94.906 17.9928 92.1184 21.4636 87.351 21.4636Z" fill="white"/>
<path fill-rule="evenodd" clip-rule="evenodd" d="M72.7882 27.3278V24.1176C72.0929 23.1323 71.5038 22.0707 71.0371 20.9456H58.3671V16.7978H69.8911C69.7591 15.9046 69.6915 14.9925 69.6915 14.0644C69.6915 12.9551 69.7849 11.8713 69.9716 10.8161H58.3703V6.98609H71.0918C71.5521 5.89273 72.1219 4.85975 72.7946 3.89988V0.600715H51.7069V27.3246H72.7946L72.7882 27.3278Z" fill="white"/>
<path fill-rule="evenodd" clip-rule="evenodd" d="M29.1996 27.3278H49.1961V20.9456H35.863V0.600715H29.1996V27.3278Z" fill="white"/>
<path fill-rule="evenodd" clip-rule="evenodd" d="M100.62 33.0648L98.9201 36.9551H98.7881C98.5982 36.9551 98.5499 36.9265 98.4855 36.7485L96.9758 33.0648H95.9136L97.5939 37.2253C97.7645 37.6575 97.9641 37.8355 98.5338 37.8355L97.5939 40H98.6755L101.695 33.0648H100.62ZM92.672 33.0648C91.3329 33.0648 90.4992 33.8721 90.4992 35.5407C90.4992 37.2094 91.3329 38.0167 92.672 38.0167H95.2537V37.0505H92.7654C91.893 37.0505 91.5132 36.6087 91.5132 35.5407C91.5132 34.4728 91.893 34.0215 92.7654 34.0215H95.2537V33.0648H92.672ZM84.7275 33.0648C84.2253 33.0648 84.0258 33.2523 84.0258 33.8339V38.0135H85.0333V34.1613C85.0333 34.0659 85.0719 34.0215 85.1556 34.0215H86.7973C87.8499 34.0215 88.307 34.4537 88.307 35.2292V38.0135H89.3243V35.2292C89.3243 33.8594 88.497 33.0648 86.7973 33.0648H84.7275ZM78.708 34.7048C78.708 34.3202 78.9269 34.0215 79.4773 34.0215H81.09C81.5825 34.0215 81.8014 34.2662 81.8014 34.6412C81.8014 35.0163 81.6019 35.2324 81.0611 35.2324H78.708V34.7048ZM79.4773 33.0648C78.2251 33.0648 77.7294 33.7576 77.7294 34.6953V36.383C77.7294 37.3206 78.2219 38.0135 79.4773 38.0135H82.545V37.0473H79.4773C78.9269 37.0473 78.708 36.7549 78.708 36.3639V36.0079H81.09C82.3229 36.0079 82.7897 35.493 82.7897 34.584C82.7897 33.6273 82.2875 33.0648 81.0997 33.0648H79.4773ZM72.0446 35.4644C72.0446 34.4505 72.4341 34.0215 73.2968 34.0215H74.2947C75.1027 34.0215 75.4149 34.3679 75.4149 35.1752V36.9106H73.2968C72.4341 36.9106 72.0446 36.4783 72.0446 35.4676V35.4644ZM73.2002 33.0648C71.8611 33.0648 71.0274 33.8339 71.0274 35.4263C71.0274 37.0187 71.8611 37.8069 73.2002 37.8069H75.4117V38.0326C75.4117 38.7445 75.1638 39.0338 74.4138 39.0338H71.5457V39.9905H74.5265C75.9332 39.9905 76.4257 39.4374 76.4257 38.0326V35.1816C76.4257 33.7576 75.7787 33.0648 74.5844 33.0648H73.2002ZM66.8202 32.9217C66.8878 32.7723 66.9908 32.7056 67.1421 32.7056C67.2934 32.7056 67.3996 32.7723 67.4543 32.9217L69.4018 38.0103H70.6444L68.4812 32.3846C68.2526 31.7934 67.8148 31.5677 67.1517 31.5677C66.4886 31.5677 66.0412 31.7934 65.803 32.3846L63.5529 38.0103H64.7858L66.8169 32.9217H66.8202ZM57.3949 33.0648C56.2264 33.0648 55.7629 33.6178 55.7629 34.5077C55.7629 35.2674 56.1041 35.9507 57.4915 35.9507H58.6793C59.1815 35.9507 59.3907 36.1097 59.3907 36.5038C59.3907 36.8979 59.2008 37.0473 58.734 37.0473H55.8208V38.0135H58.734C59.9122 38.0135 60.3757 37.3937 60.3757 36.5133C60.3757 35.7441 60.0248 35.118 58.6374 35.118H57.4593C56.8992 35.118 56.7479 34.9305 56.7479 34.584C56.7479 34.209 56.9378 34.0215 57.4013 34.0215H60.1729V33.0648H57.3917H57.3949ZM52.428 37.0473H51.4301C50.5674 37.0473 50.1779 36.6055 50.1779 35.5375C50.1779 34.4696 50.5674 34.0183 51.4301 34.0183H53.5482V35.8458C53.5482 36.6881 53.236 37.0473 52.428 37.0473ZM53.5482 30.9162V33.0616H51.3367C49.9976 33.0616 49.1639 33.8689 49.1639 35.5375C49.1639 37.2062 50.0008 38.0135 51.3367 38.0135H52.7209C53.9184 38.0135 54.5622 37.3206 54.5622 35.8967V30.9193H53.545L53.5482 30.9162ZM44.9567 32.9217C45.0243 32.7723 45.1273 32.7056 45.2786 32.7056C45.4299 32.7056 45.5361 32.7723 45.5908 32.9217L47.5383 38.0103H48.7808L46.6177 32.3846C46.3891 31.7934 45.9513 31.5677 45.2882 31.5677C44.6251 31.5677 44.1777 31.7934 43.9395 32.3846L41.6894 38.0103H42.9223L44.9534 32.9217H44.9567Z" fill="white"/>
<path fill-rule="evenodd" clip-rule="evenodd" d="M1.14919 34.3838H38.6796C39.3105 34.3838 39.8288 34.8923 39.8288 35.5185C39.8288 36.1414 39.3137 36.6532 38.6796 36.6532H1.14919C0.51826 36.6532 0 36.1414 0 35.5185C0 34.8923 0.51826 34.3838 1.14919 34.3838Z" fill="white"/>
</g>
</svg>
